<svg xmlns="http://www.w3.org/2000/svg" style="display: none;"><symbol id="menu" viewBox="0 0 512 512"><title>menu</title><g> <g> <path d="M491.318,235.318H20.682C9.26,235.318,0,244.577,0,256s9.26,20.682,20.682,20.682h470.636 c11.423,0,20.682-9.259,20.682-20.682C512,244.578,502.741,235.318,491.318,235.318z"/> </g> </g><g> <g> <path d="M491.318,78.439H20.682C9.26,78.439,0,87.699,0,99.121c0,11.422,9.26,20.682,20.682,20.682h470.636 c11.423,0,20.682-9.26,20.682-20.682C512,87.699,502.741,78.439,491.318,78.439z"/> </g> </g><g> <g> <path d="M491.318,392.197H20.682C9.26,392.197,0,401.456,0,412.879s9.26,20.682,20.682,20.682h470.636 c11.423,0,20.682-9.259,20.682-20.682S502.741,392.197,491.318,392.197z"/> </g> </g></symbol><symbol id="cancel" viewBox="0 0 64 64"><title>cancel</title><path d="M28.941,31.786L0.613,60.114c-0.787,0.787-0.787,2.062,0,2.849c0.393,0.394,0.909,0.59,1.424,0.59 c0.516,0,1.031-0.196,1.424-0.59l28.541-28.541l28.541,28.541c0.394,0.394,0.909,0.59,1.424,0.59c0.515,0,1.031-0.196,1.424-0.59 c0.787-0.787,0.787-2.062,0-2.849L35.064,31.786L63.41,3.438c0.787-0.787,0.787-2.062,0-2.849c-0.787-0.786-2.062-0.786-2.848,0 L32.003,29.15L3.441,0.59c-0.787-0.786-2.061-0.786-2.848,0c-0.787,0.787-0.787,2.062,0,2.849L28.941,31.786z"/></symbol><symbol id="share" viewBox="0 0 473.932 473.932"><title>share</title><path d="M385.513,301.214c-27.438,0-51.64,13.072-67.452,33.09l-146.66-75.002 c1.92-7.161,3.3-14.56,3.3-22.347c0-8.477-1.639-16.458-3.926-24.224l146.013-74.656c15.725,20.924,40.553,34.6,68.746,34.6 c47.758,0,86.391-38.633,86.391-86.348C471.926,38.655,433.292,0,385.535,0c-47.65,0-86.326,38.655-86.326,86.326 c0,7.809,1.381,15.229,3.322,22.412L155.892,183.74c-15.833-20.039-40.079-33.154-67.56-33.154 c-47.715,0-86.326,38.676-86.326,86.369s38.612,86.348,86.326,86.348c28.236,0,53.043-13.719,68.832-34.664l145.948,74.656 c-2.287,7.744-3.947,15.79-3.947,24.289c0,47.693,38.676,86.348,86.326,86.348c47.758,0,86.391-38.655,86.391-86.348 C471.904,339.848,433.271,301.214,385.513,301.214z"/></symbol><symbol id="facebook" viewBox="0 0 408.788 408.788"><title>facebook</title><path d="M353.701,0H55.087C24.665,0,0.002,24.662,0.002,55.085v298.616c0,30.423,24.662,55.085,55.085,55.085 h147.275l0.251-146.078h-37.951c-4.932,0-8.935-3.988-8.954-8.92l-0.182-47.087c-0.019-4.959,3.996-8.989,8.955-8.989h37.882 v-45.498c0-52.8,32.247-81.55,79.348-81.55h38.65c4.945,0,8.955,4.009,8.955,8.955v39.704c0,4.944-4.007,8.952-8.95,8.955 l-23.719,0.011c-25.615,0-30.575,12.172-30.575,30.035v39.389h56.285c5.363,0,9.524,4.683,8.892,10.009l-5.581,47.087 c-0.534,4.506-4.355,7.901-8.892,7.901h-50.453l-0.251,146.078h87.631c30.422,0,55.084-24.662,55.084-55.084V55.085 C408.786,24.662,384.124,0,353.701,0z"/></symbol><symbol id="instagram" viewBox="0 0 26 26"><title>instagram-logo</title><path d="M20,7c-0.551,0-1-0.449-1-1V4c0-0.551,0.449-1,1-1h2c0.551,0,1,0.449,1,1v2c0,0.551-0.449,1-1,1H20z "/><path d="M13,9.188c-0.726,0-1.396,0.213-1.973,0.563c0.18-0.056,0.367-0.093,0.564-0.093 c1.068,0,1.933,0.865,1.933,1.934c0,1.066-0.865,1.933-1.933,1.933s-1.933-0.866-1.933-1.933c0-0.199,0.039-0.386,0.094-0.565 C9.4,11.604,9.188,12.274,9.188,13c0,2.107,1.705,3.813,3.813,3.813c2.105,0,3.813-1.705,3.813-3.813S15.105,9.188,13,9.188z"/><g> <path d="M13,7c3.313,0,6,2.686,6,6s-2.688,6-6,6c-3.313,0-6-2.686-6-6S9.687,7,13,7 M13,5 c-4.411,0-8,3.589-8,8s3.589,8,8,8s8-3.589,8-8S17.411,5,13,5L13,5z"/> </g><path d="M21.125,0H4.875C2.182,0,0,2.182,0,4.875v16.25C0,23.818,2.182,26,4.875,26h16.25 C23.818,26,26,23.818,26,21.125V4.875C26,2.182,23.818,0,21.125,0z M24,9h-6.537C18.416,10.063,19,11.461,19,13 c0,3.314-2.688,6-6,6c-3.313,0-6-2.686-6-6c0-1.539,0.584-2.938,1.537-4H2V4.875C2,3.29,3.29,2,4.875,2h16.25 C22.711,2,24,3.29,24,4.875V9z"/></symbol>
<symbol id="address" viewBox="0 0 26 28">
<title>address</title>
<path d="M18.766 19.344c0-2.766-0.672-5.844-3.453-5.844-0.859 0.5-2.031 1.359-3.313 1.359s-2.453-0.859-3.313-1.359c-2.781 0-3.453 3.078-3.453 5.844 0 1.547 1.016 2.656 2.266 2.656h9c1.25 0 2.266-1.109 2.266-2.656zM16.063 10.063c0-2.25-1.828-4.062-4.062-4.062s-4.062 1.813-4.062 4.062c0 2.234 1.828 4.047 4.062 4.047s4.062-1.813 4.062-4.047zM26 18.5v3c0 0.281-0.219 0.5-0.5 0.5h-1.5v3.5c0 1.375-1.125 2.5-2.5 2.5h-19c-1.375 0-2.5-1.125-2.5-2.5v-23c0-1.375 1.125-2.5 2.5-2.5h19c1.375 0 2.5 1.125 2.5 2.5v3.5h1.5c0.281 0 0.5 0.219 0.5 0.5v3c0 0.281-0.219 0.5-0.5 0.5h-1.5v2h1.5c0.281 0 0.5 0.219 0.5 0.5v3c0 0.281-0.219 0.5-0.5 0.5h-1.5v2h1.5c0.281 0 0.5 0.219 0.5 0.5z"></path></symbol>
<symbol id="phone" viewBox="0 0 24 28">
<title>phone</title>
<path d="M20 18.641c0-0.078 0-0.172-0.031-0.25-0.094-0.281-2.375-1.437-2.812-1.687-0.297-0.172-0.656-0.516-1.016-0.516-0.688 0-1.703 2.047-2.312 2.047-0.313 0-0.703-0.281-0.984-0.438-2.063-1.156-3.484-2.578-4.641-4.641-0.156-0.281-0.438-0.672-0.438-0.984 0-0.609 2.047-1.625 2.047-2.312 0-0.359-0.344-0.719-0.516-1.016-0.25-0.438-1.406-2.719-1.687-2.812-0.078-0.031-0.172-0.031-0.25-0.031-0.406 0-1.203 0.187-1.578 0.344-1.031 0.469-1.781 2.438-1.781 3.516 0 1.047 0.422 2 0.781 2.969 1.25 3.422 4.969 7.141 8.391 8.391 0.969 0.359 1.922 0.781 2.969 0.781 1.078 0 3.047-0.75 3.516-1.781 0.156-0.375 0.344-1.172 0.344-1.578zM24 6.5v15c0 2.484-2.016 4.5-4.5 4.5h-15c-2.484 0-4.5-2.016-4.5-4.5v-15c0-2.484 2.016-4.5 4.5-4.5h15c2.484 0 4.5 2.016 4.5 4.5z"></path></symbol>
</svg>