<svg id="logoVL" data-name="logoVL" xmlns="http://www.w3.org/2000/svg" viewBox="0 0 174.31 25.95"><title>logo_VeriteLaide</title><path class="cls" d="M74.62,141.14,66.7,116.88h3.39l3.78,12c1,3.28,1.94,6.23,2.59,9.07h.07c.68-2.8,1.69-5.86,2.77-9l4.1-12h3.35l-8.67,24.26Z" transform="translate(-66.7 -115.59)"/><path class="cls" d="M89.85,133c.07,4.28,2.81,6.05,6,6.05a11.53,11.53,0,0,0,4.82-.9l.54,2.26a14,14,0,0,1-5.8,1.08c-5.36,0-8.56-3.52-8.56-8.78s3.09-9.39,8.17-9.39c5.68,0,7.2,5,7.2,8.2a13.14,13.14,0,0,1-.11,1.48Zm9.29-2.27c0-2-.83-5.15-4.39-5.15-3.21,0-4.61,3-4.86,5.15Zm.75-14.54-4.39,5.15H93.23l3.17-5.15Z" transform="translate(-66.7 -115.59)"/><path class="cls" d="M106.12,129.16c0-2,0-3.82-.14-5.44h2.77l.11,3.42H109a5.22,5.22,0,0,1,4.82-3.81,3.49,3.49,0,0,1,.9.1v3a4.76,4.76,0,0,0-1.07-.11c-2.24,0-3.82,1.7-4.25,4.07a9.13,9.13,0,0,0-.15,1.48v9.28h-3.13Z" transform="translate(-66.7 -115.59)"/><path class="cls" d="M121.57,118.83a2,2,0,0,1-3.93,0,1.93,1.93,0,0,1,2-2A1.88,1.88,0,0,1,121.57,118.83ZM118,141.14V123.72h3.17v17.42Z" transform="translate(-66.7 -115.59)"/><path class="cls" d="M130.28,118.72v5h4.53v2.41h-4.53v9.4c0,2.16.61,3.38,2.37,3.38a7.53,7.53,0,0,0,1.84-.21l.14,2.37a7.76,7.76,0,0,1-2.8.43,4.35,4.35,0,0,1-3.42-1.33c-.9-.93-1.23-2.48-1.23-4.53v-9.51h-2.7v-2.41h2.7v-4.17Z" transform="translate(-66.7 -115.59)"/><path class="cls" d="M139.92,133c.08,4.28,2.81,6.05,6,6.05a11.46,11.46,0,0,0,4.82-.9l.54,2.26a14,14,0,0,1-5.79,1.08c-5.37,0-8.57-3.52-8.57-8.78s3.1-9.39,8.17-9.39c5.69,0,7.2,5,7.2,8.2a11.11,11.11,0,0,1-.11,1.48Zm9.29-2.27c0-2-.83-5.15-4.39-5.15-3.2,0-4.61,3-4.86,5.15ZM150,116.2l-4.39,5.15h-2.27l3.17-5.15Z" transform="translate(-66.7 -115.59)"/><path class="cls" d="M163.94,116.88h3.13v21.64h10.37v2.62h-13.5Z" transform="translate(-66.7 -115.59)"/><path class="cls" d="M190.47,141.14l-.26-2.19h-.1a6.5,6.5,0,0,1-5.33,2.59,5,5,0,0,1-5.33-5c0-4.21,3.75-6.52,10.48-6.48v-.36c0-1.44-.4-4-4-4a8.73,8.73,0,0,0-4.54,1.29l-.72-2.09a10.88,10.88,0,0,1,5.73-1.54c5.32,0,6.62,3.63,6.62,7.12V137a24,24,0,0,0,.29,4.17Zm-.47-8.89c-3.46-.07-7.38.54-7.38,3.93a2.8,2.8,0,0,0,3,3,4.33,4.33,0,0,0,4.21-2.91,3.31,3.31,0,0,0,.18-1Z" transform="translate(-66.7 -115.59)"/><path class="cls" d="M201.7,118.83a2,2,0,0,1-3.92,0,1.92,1.92,0,0,1,2-2A1.88,1.88,0,0,1,201.7,118.83Zm-3.53,22.31V123.72h3.17v17.42Z" transform="translate(-66.7 -115.59)"/><path class="cls" d="M221.64,115.59v21.06c0,1.54,0,3.31.15,4.49h-2.85l-.14-3h-.07a6.47,6.47,0,0,1-5.94,3.42c-4.21,0-7.45-3.56-7.45-8.85,0-5.8,3.56-9.36,7.81-9.36A5.82,5.82,0,0,1,218.4,126h.07v-10.4Zm-3.17,15.22a5.52,5.52,0,0,0-.14-1.33,4.67,4.67,0,0,0-4.57-3.67c-3.28,0-5.22,2.88-5.22,6.73,0,3.53,1.73,6.44,5.15,6.44a4.76,4.76,0,0,0,4.64-3.77,5.49,5.49,0,0,0,.14-1.37Z" transform="translate(-66.7 -115.59)"/><path class="cls" d="M228.66,133c.08,4.28,2.81,6.05,6,6.05a11.5,11.5,0,0,0,4.82-.9l.54,2.26a14,14,0,0,1-5.79,1.08c-5.37,0-8.57-3.52-8.57-8.78s3.1-9.39,8.17-9.39c5.69,0,7.2,5,7.2,8.2a11.11,11.11,0,0,1-.11,1.48Zm9.29-2.27c0-2-.83-5.15-4.39-5.15-3.21,0-4.61,3-4.86,5.15Z" transform="translate(-66.7 -115.59)"/></svg>